<?xml version="1.0" encoding="iso-8859-1"?>
<!-- Generator: Adobe Illustrator 19.0.0, SVG Export Plug-In . SVG Version: 6.00 Build 0)  -->
<svg version="1.1" id="Layer_1" xmlns="http://www.w3.org/2000/svg" xmlns:xlink="http://www.w3.org/1999/xlink" x="0px" y="0px"
	 viewBox="0 0 512 512" style="enable-background:new 0 0 512 512;" xml:space="preserve" fill="black">
<g>
	<g>
		<path d="M363.507,340.876H148.493c-8.903,0-16.12,7.218-16.12,16.12c0,8.903,7.218,16.12,16.12,16.12h215.013
			c8.903,0,16.12-7.218,16.12-16.12C379.626,348.094,372.41,340.876,363.507,340.876z"/>
	</g>
</g>
<g>
	<g>
		<path d="M426.386,204.888c0-113.807-83.685-179.948-170.386-179.948c-87.559,0-170.386,66.852-170.386,179.974
			C45.034,187.559,0,217.612,0,261.507c0,35.714,30.351,63.316,64.28,61.467c-1.082,11.858-0.426,23.937,2.019,36.036
			c13.652,67.562,82.804,128.05,189.7,128.05c125.271,0,199.074-83.416,191.798-164.082C481.752,324.792,512,297.142,512,261.507
			C512,217.45,466.803,187.626,426.386,204.888z M414.17,352.425c-12.112,59.965-76.353,102.394-158.17,102.394
			c-85.46,0-146.553-45.064-158.098-102.196c-10.894-53.907,28.514-98.7,79.405-120.144c5.976-2.518,9.861-8.371,9.861-14.856
			v-35.208c0-34.74,52.712-34.865,52.712,0c0,8.903,7.218,16.12,16.12,16.12c8.903,0,16.12-7.218,16.12-16.12
			c0-34.74,52.712-34.865,52.712,0v35.208c0,6.486,3.886,12.339,9.864,14.857C385.009,253.67,425.037,298.628,414.17,352.425z"/>
	</g>
</g>
<g>
	<g>
		<path d="M237.09,291.29l-4.186-4.186c-6.295-6.294-16.502-6.294-22.798,0s-6.296,16.502,0,22.798l4.186,4.186
			c6.296,6.296,16.502,6.296,22.798,0C243.386,307.793,243.386,297.586,237.09,291.29z"/>
	</g>
</g>
<g>
	<g>
		<path d="M301.893,287.104c-6.294-6.294-16.502-6.294-22.798,0l-4.186,4.186c-6.296,6.294-6.296,16.502,0,22.798
			c6.296,6.297,16.502,6.296,22.798,0l4.186-4.186C308.189,303.608,308.189,293.4,301.893,287.104z"/>
	</g>
</g>
<g>
	<g>
		<circle cx="215.165" cy="238.26" r="21.325"/>
	</g>
</g>
<g>
	<g>
		<circle cx="296.832" cy="238.26" r="21.325"/>
	</g>
</g>
<g>
</g>
<g>
</g>
<g>
</g>
<g>
</g>
<g>
</g>
<g>
</g>
<g>
</g>
<g>
</g>
<g>
</g>
<g>
</g>
<g>
</g>
<g>
</g>
<g>
</g>
<g>
</g>
<g>
</g>
</svg>
